<svg width="47" height="40" viewBox="0 0 47 40" fill="none" xmlns="http://www.w3.org/2000/svg">
<path d="M29.7975 0.366812C33.2518 0.366812 36.7031 0.382051 40.1575 0.351562C40.8191 0.351562 41.249 0.564984 41.6454 1.10463C43.2125 3.2236 44.8101 5.32427 46.4047 7.41275C46.7888 7.91886 46.9108 8.40974 46.7431 9.0561C44.7766 16.224 42.8131 23.3919 40.8801 30.5598C40.6789 31.2793 40.313 31.5873 39.5904 31.572C37.1056 31.5568 34.633 31.572 32.1481 31.5568C31.3493 31.5568 31.1969 31.325 31.3951 30.575C33.3921 23.2821 35.3708 15.9953 37.3648 8.70243C37.6239 7.76642 37.5203 7.61398 36.5538 7.61398H17.5227C16.4312 7.61398 16.3397 7.47373 16.6172 6.46151C17.0623 4.83341 17.4922 3.20836 17.9374 1.58026C18.23 0.488761 18.4282 0.351562 19.5471 0.351562C22.9375 0.366807 26.3766 0.366812 29.8005 0.366812" fill="#95E2C0"/>
<path d="M17.0444 39.657C13.6357 39.657 10.2423 39.6418 6.83673 39.6723C6.02573 39.6875 5.51657 39.3948 5.04094 38.7515C3.5226 36.663 1.95853 34.6081 0.391412 32.5653C-0.00799057 32.044 -0.0841968 31.5684 0.0834912 30.9403C2.03172 23.8486 3.96469 16.7569 5.90073 9.66832C6.19342 8.62255 6.36111 8.48535 7.45261 8.48535H14.59C15.526 8.48535 15.6663 8.66829 15.4193 9.58905C13.468 16.7234 11.5351 23.8639 9.58682 31.0135C9.55633 31.1354 9.5228 31.2574 9.49536 31.3793C9.26364 32.2879 9.35511 32.4098 10.2942 32.4098H29.2338C30.4625 32.4098 30.5387 32.5013 30.2155 33.6843C29.7856 35.2788 29.3374 36.8764 28.8953 38.4893C28.6179 39.4863 28.4167 39.657 27.4044 39.657H17.0444Z" fill="#95E2C0"/>
</svg>
